<svg width="31" height="32" viewBox="0 0 31 32" fill="none" xmlns="http://www.w3.org/2000/svg">
<path d="M6.23991 24.3503C7.67394 23.2662 9.14847 22.4274 10.6635 21.8341C12.1786 21.2408 13.7908 20.9442 15.5003 20.9442C17.2098 20.9442 18.8261 21.2408 20.3493 21.8341C21.8724 22.4274 23.351 23.2662 24.7851 24.3503C25.7816 23.0783 26.5087 21.7509 26.9665 20.3679C27.4242 18.985 27.6531 17.521 27.6531 15.9758C27.6531 12.3648 26.4844 9.32792 24.147 6.86508C21.8097 4.40225 18.9274 3.17083 15.5003 3.17083C12.0732 3.17083 9.19101 4.40225 6.85361 6.86508C4.51622 9.32792 3.34752 12.3648 3.34752 15.9758C3.34752 17.521 3.58046 18.985 4.04632 20.3679C4.51219 21.7509 5.24338 23.0783 6.23991 24.3503ZM15.4958 17.2563C14.081 17.2563 12.8895 16.7447 11.9213 15.7214C10.9532 14.6981 10.4691 13.4411 10.4691 11.9503C10.4691 10.4596 10.9547 9.20414 11.9258 8.18402C12.897 7.16387 14.09 6.6538 15.5048 6.6538C16.9197 6.6538 18.1111 7.16546 19.0793 8.18879C20.0475 9.21208 20.5316 10.4691 20.5316 11.9598C20.5316 13.4506 20.046 14.706 19.0748 15.7261C18.1036 16.7463 16.9106 17.2563 15.4958 17.2563ZM15.5117 31.3418C13.503 31.3418 11.6115 30.9385 9.83714 30.1317C8.06284 29.325 6.51538 28.2259 5.19476 26.8345C3.87416 25.443 2.83106 23.8145 2.06543 21.9489C1.2998 20.0834 0.916992 18.0901 0.916992 15.969C0.916992 13.8479 1.2998 11.8569 2.06543 9.9959C2.83106 8.13493 3.87416 6.5087 5.19476 5.1172C6.51538 3.72574 8.06094 2.62665 9.83146 1.81993C11.602 1.01322 13.4937 0.609863 15.5068 0.609863C17.5198 0.609863 19.4095 1.01322 21.1757 1.81993C22.9419 2.62665 24.4853 3.72574 25.8059 5.1172C27.1265 6.5087 28.1696 8.13521 28.9352 9.99675C29.7009 11.8583 30.0837 13.8473 30.0837 15.9639C30.0837 18.0804 29.7009 20.0734 28.9352 21.9429C28.1696 23.8125 27.1265 25.443 25.8059 26.8345C24.4853 28.2259 22.9416 29.325 21.1749 30.1317C19.4082 30.9385 17.5204 31.3418 15.5117 31.3418ZM15.5003 28.7808C16.8209 28.7808 18.097 28.5781 19.3285 28.1726C20.5599 27.7671 21.7469 27.0991 22.8892 26.1686C21.7469 25.3064 20.5559 24.647 19.3163 24.1902C18.0767 23.7335 16.8047 23.5052 15.5003 23.5052C14.1959 23.5052 12.9239 23.7335 11.6843 24.1902C10.4448 24.647 9.25379 25.3064 8.11143 26.1686C9.25379 27.0991 10.4407 27.7671 11.6722 28.1726C12.9037 28.5781 14.1797 28.7808 15.5003 28.7808ZM15.5003 14.6954C16.2619 14.6954 16.8857 14.4393 17.3719 13.9271C17.858 13.4149 18.101 12.7575 18.101 11.9551C18.101 11.1526 17.858 10.4953 17.3719 9.98311C16.8857 9.47091 16.2619 9.21481 15.5003 9.21481C14.7388 9.21481 14.1149 9.47091 13.6288 9.98311C13.1427 10.4953 12.8996 11.1526 12.8996 11.9551C12.8996 12.7575 13.1427 13.4149 13.6288 13.9271C14.1149 14.4393 14.7388 14.6954 15.5003 14.6954Z" fill="#4B465A"/>
</svg>
