<svg width="23" height="15" viewBox="0 0 23 15" fill="none" xmlns="http://www.w3.org/2000/svg">
<path d="M2.32811 8.22705L7.82838 13.7259C7.96538 13.8629 8.03878 14.0312 8.04857 14.2308C8.05835 14.4304 7.98496 14.6086 7.82838 14.7651C7.6718 14.9217 7.49859 15 7.30874 15C7.11791 15 6.9447 14.9217 6.7891 14.7651L0.346428 8.32246C0.219208 8.19524 0.129666 8.0646 0.0777993 7.93053C0.0259331 7.79744 0 7.65163 0 7.49309C0 7.33456 0.0259331 7.18874 0.0777993 7.05565C0.129666 6.92158 0.219208 6.79094 0.346428 6.66372L6.7891 0.221051C6.9261 0.0840454 7.09442 0.0106496 7.29406 0.000863477C7.4937 -0.00892261 7.6718 0.0644732 7.82838 0.221051C7.98496 0.377628 8.06324 0.550842 8.06324 0.740692C8.06324 0.930542 7.98496 1.10376 7.82838 1.26033L2.32811 6.75914H22.2697C22.4781 6.75914 22.6528 6.82911 22.7938 6.96905C22.9337 7.10997 23.0037 7.28465 23.0037 7.49309C23.0037 7.70154 22.9337 7.87622 22.7938 8.01714C22.6528 8.15708 22.4781 8.22705 22.2697 8.22705H2.32811Z" fill="#4B465A"/>
</svg>
