<svg width="17" height="18" viewBox="0 0 17 18" fill="none" xmlns="http://www.w3.org/2000/svg">
<path d="M5.0692 18C4.62954 18 4.25417 17.835 3.9431 17.5051C3.63201 17.1753 3.47647 16.7787 3.47647 16.3154C3.47647 15.8522 3.63302 15.4566 3.94611 15.1289C4.25921 14.8011 4.63559 14.6372 5.07525 14.6372C5.51493 14.6372 5.8903 14.8022 6.20138 15.1321C6.51245 15.462 6.66799 15.8585 6.66799 16.3218C6.66799 16.7851 6.51144 17.1806 6.19834 17.5083C5.88526 17.8361 5.50888 18 5.0692 18ZM13.6179 18C13.1783 18 12.8029 17.835 12.4918 17.5051C12.1807 17.1753 12.0252 16.7787 12.0252 16.3154C12.0252 15.8522 12.1817 15.4566 12.4948 15.1289C12.8079 14.8011 13.1843 14.6372 13.624 14.6372C14.0637 14.6372 14.439 14.8022 14.7501 15.1321C15.0612 15.462 15.2167 15.8585 15.2167 16.3218C15.2167 16.7851 15.0602 17.1806 14.7471 17.5083C14.434 17.8361 14.0576 18 13.6179 18ZM4.08911 3.28774L6.34029 8.21185H12.4384L15.003 3.28774H4.08911ZM3.39098 1.78648H15.9871C16.3145 1.78648 16.5636 1.94287 16.7344 2.25564C16.9052 2.56839 16.9075 2.8824 16.7413 3.19767L13.8062 8.7673C13.6494 9.05754 13.4438 9.28773 13.1891 9.45788C12.9345 9.62802 12.6557 9.71309 12.3529 9.71309H5.91286L4.80152 11.8749H15.2167V13.3762H4.92975C4.31709 13.3762 3.86829 13.1372 3.58333 12.6593C3.29837 12.1814 3.296 11.6697 3.57621 11.1243L4.87278 8.61719L1.68124 1.50124H0V0H2.59311L3.39098 1.78648Z" fill="#AA4E43"/>
<path d="M9.5 3V8.5" stroke="#AA4E43"/>
<line x1="6" y1="5.5" x2="13" y2="5.5" stroke="#AA4E43"/>
</svg>
