<svg width="31" height="34" viewBox="0 0 31 34" fill="none" xmlns="http://www.w3.org/2000/svg">
<path d="M9.25837 33.7653C8.45538 33.7653 7.76981 33.464 7.20166 32.8615C6.63349 32.259 6.34941 31.5347 6.34941 30.6886C6.34941 29.8425 6.63533 29.1201 7.20717 28.5215C7.77901 27.9228 8.46643 27.6235 9.26942 27.6235C10.0724 27.6235 10.758 27.9247 11.3262 28.5273C11.8943 29.1298 12.1784 29.8541 12.1784 30.7002C12.1784 31.5463 11.8925 32.2687 11.3206 32.8673C10.7488 33.466 10.0614 33.7653 9.25837 33.7653ZM24.8717 33.7653C24.0687 33.7653 23.3832 33.464 22.815 32.8615C22.2469 32.259 21.9628 31.5347 21.9628 30.6886C21.9628 29.8425 22.2487 29.1201 22.8205 28.5215C23.3924 27.9228 24.0798 27.6235 24.8828 27.6235C25.6858 27.6235 26.3714 27.9247 26.9395 28.5273C27.5077 29.1298 27.7918 29.8541 27.7918 30.7002C27.7918 31.5463 27.5058 32.2687 26.934 32.8673C26.3622 33.466 25.6748 33.7653 24.8717 33.7653ZM7.46834 6.89486L11.5799 15.8882H22.7174L27.4015 6.89486H7.46834ZM6.19328 4.15296H29.1989C29.7968 4.15296 30.2517 4.43858 30.5636 5.00983C30.8756 5.58104 30.8797 6.15455 30.5762 6.73034L25.2155 16.9027C24.9293 17.4328 24.5536 17.8532 24.0886 18.164C23.6235 18.4747 23.1144 18.6301 22.5613 18.6301H10.7992L8.76948 22.5784H27.7918V25.3203H9.00368C7.88472 25.3203 7.06502 24.8839 6.54458 24.0111C6.02413 23.1382 6.0198 22.2037 6.53158 21.2075L8.89962 16.6285L3.0706 3.63199H0V0.890137H4.73604L6.19328 4.15296Z" fill="#4B465A"/>
</svg>
