<svg width="1313" height="89" viewBox="0 0 1313 89" fill="none" xmlns="http://www.w3.org/2000/svg">
<path d="M0 5C0 2.23858 2.23858 0 5 0H1308C1310.76 0 1313 2.23858 1313 5V79C1313 84.5228 1308.52 89 1303 89H10C4.47717 89 0 84.5228 0 79V5Z" fill="white"/>
<g clip-path="url(#clip0_2004_13404)">
<path d="M41.6667 20.8333C41.6667 20.0673 41.5158 19.3087 41.2226 18.601C40.9295 17.8933 40.4998 17.2502 39.9581 16.7085C39.4164 16.1669 38.7734 15.7372 38.0657 15.444C37.3579 15.1509 36.5994 15 35.8333 15C35.0673 15 34.3087 15.1509 33.601 15.444C32.8933 15.7372 32.2502 16.1669 31.7085 16.7085C31.1669 17.2502 30.7372 17.8933 30.444 18.601C30.1509 19.3087 30 20.0673 30 20.8333C30 21.9892 30.3408 23.0642 30.9208 23.9708H30.9142L35.8333 31.6667L40.7525 23.9708H40.7467C41.3474 23.0347 41.6667 21.9457 41.6667 20.8333ZM35.8333 23.3333C35.1703 23.3333 34.5344 23.0699 34.0656 22.6011C33.5967 22.1323 33.3333 21.4964 33.3333 20.8333C33.3333 20.1703 33.5967 19.5344 34.0656 19.0656C34.5344 18.5967 35.1703 18.3333 35.8333 18.3333C36.4964 18.3333 37.1323 18.5967 37.6011 19.0656C38.0699 19.5344 38.3333 20.1703 38.3333 20.8333C38.3333 21.4964 38.0699 22.1323 37.6011 22.6011C37.1323 23.0699 36.4964 23.3333 35.8333 23.3333Z" fill="#AA4E43"/>
</g>
<defs>
<clipPath id="clip0_2004_13404">
<rect width="11.6667" height="31.6667" fill="white" transform="translate(30)"/>
</clipPath>
</defs>
</svg>
