<svg width="30" height="30" viewBox="0 0 30 30" fill="none" xmlns="http://www.w3.org/2000/svg">
<path d="M9.75 9C9.75 9.59674 9.51295 10.169 9.09099 10.591C8.66903 11.0129 8.09674 11.25 7.5 11.25C6.90326 11.25 6.33097 11.0129 5.90901 10.591C5.48705 10.169 5.25 9.59674 5.25 9C5.25 8.40326 5.48705 7.83097 5.90901 7.40901C6.33097 6.98705 6.90326 6.75 7.5 6.75C8.09674 6.75 8.66903 6.98705 9.09099 7.40901C9.51295 7.83097 9.75 8.40326 9.75 9ZM9.75 15C9.75 15.5967 9.51295 16.169 9.09099 16.591C8.66903 17.0129 8.09674 17.25 7.5 17.25C6.90326 17.25 6.33097 17.0129 5.90901 16.591C5.48705 16.169 5.25 15.5967 5.25 15C5.25 14.4033 5.48705 13.831 5.90901 13.409C6.33097 12.9871 6.90326 12.75 7.5 12.75C8.09674 12.75 8.66903 12.9871 9.09099 13.409C9.51295 13.831 9.75 14.4033 9.75 15ZM9.75 21C9.75 21.5967 9.51295 22.169 9.09099 22.591C8.66903 23.0129 8.09674 23.25 7.5 23.25C6.90326 23.25 6.33097 23.0129 5.90901 22.591C5.48705 22.169 5.25 21.5967 5.25 21C5.25 20.4033 5.48705 19.831 5.90901 19.409C6.33097 18.9871 6.90326 18.75 7.5 18.75C8.09674 18.75 8.66903 18.9871 9.09099 19.409C9.51295 19.831 9.75 20.4033 9.75 21Z" fill="#4B465A"/>
<path fill-rule="evenodd" clip-rule="evenodd" d="M11.25 9.75C11.25 9.55109 11.329 9.36032 11.4697 9.21967C11.6103 9.07902 11.8011 9 12 9H24C24.1989 9 24.3897 9.07902 24.5303 9.21967C24.671 9.36032 24.75 9.55109 24.75 9.75C24.75 9.94891 24.671 10.1397 24.5303 10.2803C24.3897 10.421 24.1989 10.5 24 10.5H12C11.8011 10.5 11.6103 10.421 11.4697 10.2803C11.329 10.1397 11.25 9.94891 11.25 9.75ZM11.25 15.75C11.25 15.5511 11.329 15.3603 11.4697 15.2197C11.6103 15.079 11.8011 15 12 15H24C24.1989 15 24.3897 15.079 24.5303 15.2197C24.671 15.3603 24.75 15.5511 24.75 15.75C24.75 15.9489 24.671 16.1397 24.5303 16.2803C24.3897 16.421 24.1989 16.5 24 16.5H12C11.8011 16.5 11.6103 16.421 11.4697 16.2803C11.329 16.1397 11.25 15.9489 11.25 15.75ZM11.25 21.75C11.25 21.5511 11.329 21.3603 11.4697 21.2197C11.6103 21.079 11.8011 21 12 21H24C24.1989 21 24.3897 21.079 24.5303 21.2197C24.671 21.3603 24.75 21.5511 24.75 21.75C24.75 21.9489 24.671 22.1397 24.5303 22.2803C24.3897 22.421 24.1989 22.5 24 22.5H12C11.8011 22.5 11.6103 22.421 11.4697 22.2803C11.329 22.1397 11.25 21.9489 11.25 21.75Z" fill="#4B465A"/>
</svg>
