<svg width="24" height="25" viewBox="0 0 24 25" fill="none" xmlns="http://www.w3.org/2000/svg">
<path d="M13.7144 14.2852H10.2859C8.46785 14.2873 6.7249 15.0405 5.43938 16.3796C4.15386 17.7187 3.43075 19.5343 3.42871 21.428C3.42859 21.6173 3.48623 21.8017 3.59331 21.9547C3.70039 22.1076 3.85136 22.2212 4.02443 22.2789C6.62743 22.9804 9.31256 23.2951 12.0001 23.2137C14.6877 23.2951 17.3728 22.9804 19.9759 22.2789C20.1489 22.2212 20.2999 22.1076 20.407 21.9547C20.514 21.8017 20.5717 21.6173 20.5716 21.428C20.5695 19.5343 19.8464 17.7187 18.5609 16.3796C17.2754 15.0405 15.5324 14.2873 13.7144 14.2852Z" fill="#4B465A"/>
<path d="M12.0004 12.5003C14.6576 12.5003 16.7147 9.40207 16.7147 6.73689C16.7147 5.43448 16.218 4.18542 15.3339 3.26449C14.4498 2.34355 13.2507 1.82617 12.0004 1.82617C10.7501 1.82617 9.55101 2.34355 8.66691 3.26449C7.78281 4.18542 7.28613 5.43448 7.28613 6.73689C7.28613 9.40207 9.34328 12.5003 12.0004 12.5003Z" fill="#4B465A"/>
</svg>
