<svg width="10" height="10" viewBox="0 0 10 10" fill="none" xmlns="http://www.w3.org/2000/svg">
<path d="M5 10C4.31389 10 3.66667 9.86875 3.05834 9.60625C2.45 9.34375 1.91945 8.98611 1.46666 8.53333C1.01389 8.08055 0.65625 7.54999 0.39375 6.94166C0.13125 6.33333 0 5.68611 0 5C0 4.30833 0.13125 3.65833 0.39375 3.05C0.65625 2.44166 1.01389 1.9125 1.46666 1.4625C1.91945 1.0125 2.45 0.656247 3.05834 0.393747C3.66667 0.131247 4.31389 -2.86102e-06 5 -2.86102e-06C5.69167 -2.86102e-06 6.34167 0.131247 6.95 0.393747C7.55833 0.656247 8.0875 1.0125 8.5375 1.4625C8.9875 1.9125 9.34375 2.44166 9.60625 3.05C9.86875 3.65833 10 4.30833 10 5C10 5.68611 9.86875 6.33333 9.60625 6.94166C9.34375 7.54999 8.9875 8.08055 8.5375 8.53333C8.0875 8.98611 7.55833 9.34375 6.95 9.60625C6.34167 9.86875 5.69167 10 5 10ZM5 9.16667C6.16111 9.16667 7.14583 8.76111 7.95418 7.95C8.76251 7.13889 9.16668 6.15556 9.16668 5C9.16668 3.83889 8.76251 2.85416 7.95418 2.04582C7.14583 1.23749 6.16111 0.833322 5 0.833322C3.84444 0.833322 2.86111 1.23749 2.05 2.04582C1.23888 2.85416 0.833325 3.83889 0.833325 5C0.833325 6.15556 1.23888 7.13889 2.05 7.95C2.86111 8.76111 3.84444 9.16667 5 9.16667Z" fill="#AA4E43"/>
</svg>
