<svg width="15" height="15" viewBox="0 0 15 15" fill="none" xmlns="http://www.w3.org/2000/svg">
<path d="M7.5 15C6.47084 15 5.50001 14.8031 4.58751 14.4094C3.67501 14.0156 2.87917 13.4792 2.19999 12.8C1.52083 12.1208 0.984375 11.325 0.590625 10.4125C0.196875 9.49999 0 8.52916 0 7.5C0 6.4625 0.196875 5.4875 0.590625 4.575C0.984375 3.6625 1.52083 2.86875 2.19999 2.19375C2.87917 1.51875 3.67501 0.984371 4.58751 0.590621C5.50001 0.196871 6.47084 -4.29153e-06 7.5 -4.29153e-06C8.5375 -4.29153e-06 9.5125 0.196871 10.425 0.590621C11.3375 0.984371 12.1313 1.51875 12.8062 2.19375C13.4812 2.86875 14.0156 3.6625 14.4094 4.575C14.8031 5.4875 15 6.4625 15 7.5C15 8.52916 14.8031 9.49999 14.4094 10.4125C14.0156 11.325 13.4812 12.1208 12.8062 12.8C12.1313 13.4792 11.3375 14.0156 10.425 14.4094C9.5125 14.8031 8.5375 15 7.5 15ZM7.5 13.75C9.24166 13.75 10.7188 13.1417 11.9313 11.925C13.1438 10.7083 13.75 9.23333 13.75 7.5C13.75 5.75833 13.1438 4.28125 11.9313 3.06873C10.7188 1.85623 9.24166 1.24998 7.5 1.24998C5.76666 1.24998 4.29166 1.85623 3.075 3.06873C1.85832 4.28125 1.24999 5.75833 1.24999 7.5C1.24999 9.23333 1.85832 10.7083 3.075 11.925C4.29166 13.1417 5.76666 13.75 7.5 13.75Z" fill="#AA4E43"/>
</svg>
