<svg width="23" height="24" viewBox="0 0 23 24" fill="none" xmlns="http://www.w3.org/2000/svg">
<path d="M21 23.7446L12.8958 15.2055C12.2708 15.7616 11.5454 16.197 10.7196 16.5117C9.89378 16.8263 9.01503 16.9836 8.08334 16.9836C5.82416 16.9836 3.91214 16.1586 2.34728 14.5086C0.782427 12.8586 0 10.8592 0 8.51037C0 6.16157 0.78299 4.16216 2.34897 2.51214C3.91493 0.86212 5.81597 0.0371094 8.05209 0.0371094C10.2882 0.0371094 12.1858 0.86212 13.7448 2.51214C15.3038 4.16216 16.0833 6.16267 16.0833 8.51366C16.0833 9.46269 15.9375 10.3726 15.6458 11.2433C15.3542 12.114 14.9306 12.9153 14.375 13.647L22.5 22.1641L21 23.7446ZM8.0625 14.7885C9.71181 14.7885 11.1137 14.1757 12.2682 12.95C13.4227 11.7244 14 10.2445 14 8.51037C14 6.77619 13.4227 5.29629 12.2682 4.07068C11.1137 2.84507 9.71181 2.23226 8.0625 2.23226C6.40163 2.23226 4.98987 2.84507 3.82725 4.07068C2.66463 5.29629 2.08331 6.77619 2.08331 8.51037C2.08331 10.2445 2.66463 11.7244 3.82725 12.95C4.98987 14.1757 6.40163 14.7885 8.0625 14.7885Z" fill="#4B465A"/>
</svg>
