<svg width="24" height="25" viewBox="0 0 24 25" fill="none" xmlns="http://www.w3.org/2000/svg">
<path d="M18.5944 23.2134L5.40466 23.2134C5.03617 23.2135 4.67198 23.131 4.33676 22.9716C4.00154 22.8123 3.70311 22.5797 3.4617 22.2897C3.22029 21.9997 3.04154 21.6591 2.93754 21.2908C2.83354 20.9226 2.80674 20.5354 2.85894 20.1554L4.2938 9.69381C4.32309 9.48113 4.42502 9.28658 4.58089 9.14587C4.73676 9.00515 4.93611 8.92771 5.14237 8.92773L18.8567 8.92773C19.0629 8.92771 19.2623 9.00515 19.4181 9.14587C19.574 9.28658 19.6759 9.48113 19.7052 9.69381L21.1401 20.1554C21.1923 20.5354 21.1655 20.9226 21.0615 21.2908C20.9575 21.6591 20.7787 21.9997 20.5373 22.2897C20.2959 22.5797 19.9975 22.8123 19.6623 22.9716C19.327 23.131 18.9629 23.2135 18.5944 23.2134Z" fill="#4B465A"/>
<path d="M9.42815 7.1423V6.24944C9.42815 5.53904 9.69907 4.85774 10.1813 4.35541C10.6635 3.85308 11.3176 3.57087 11.9996 3.57087C12.6816 3.57087 13.3356 3.85308 13.8179 4.35541C14.3001 4.85774 14.571 5.53904 14.571 6.24944L14.571 7.1423H16.2853V6.24944C16.2853 5.06544 15.8338 3.92993 15.03 3.09272C14.2263 2.2555 13.1362 1.78516 11.9996 1.78516C10.8629 1.78516 9.77285 2.2555 8.96912 3.09272C8.1654 3.92993 7.71387 5.06544 7.71387 6.24944L7.71387 7.1423H9.42815Z" fill="#4B465A"/>
</svg>
