<svg width="75" height="15" viewBox="0 0 75 15" fill="none" xmlns="http://www.w3.org/2000/svg">
<path d="M7.5 0L9.39561 4.89092L14.6329 5.18237L10.5672 8.49658L11.9084 13.5676L7.5 10.725L3.09161 13.5676L4.43284 8.49658L0.367076 5.18237L5.60439 4.89092L7.5 0Z" fill="#AA4E43"/>
<path d="M22.5 0L24.3956 4.89092L29.6329 5.18237L25.5672 8.49658L26.9084 13.5676L22.5 10.725L18.0916 13.5676L19.4328 8.49658L15.3671 5.18237L20.6044 4.89092L22.5 0Z" fill="#AA4E43"/>
<path d="M37.5 0L39.3956 4.89092L44.6329 5.18237L40.5672 8.49658L41.9084 13.5676L37.5 10.725L33.0916 13.5676L34.4328 8.49658L30.3671 5.18237L35.6044 4.89092L37.5 0Z" fill="#9A9A9A"/>
<path d="M52.5 0L54.3956 4.89092L59.6329 5.18237L55.5672 8.49658L56.9084 13.5676L52.5 10.725L48.0916 13.5676L49.4328 8.49658L45.3671 5.18237L50.6044 4.89092L52.5 0Z" fill="#9A9A9A"/>
<path d="M67.5 0L69.3956 4.89092L74.6329 5.18237L70.5672 8.49658L71.9084 13.5676L67.5 10.725L63.0916 13.5676L64.4328 8.49658L60.3671 5.18237L65.6044 4.89092L67.5 0Z" fill="#9A9A9A"/>
</svg>
