<svg width="85" height="17" viewBox="0 0 85 17" fill="none" xmlns="http://www.w3.org/2000/svg">
<path d="M8.5 0L10.6484 5.54304L16.584 5.87336L11.9761 9.62946L13.4962 15.3766L8.5 12.155L3.50383 15.3766L5.02389 9.62946L0.416019 5.87336L6.35164 5.54304L8.5 0Z" fill="#AA4E43"/>
<path d="M25.5 0L27.6484 5.54304L33.584 5.87336L28.9761 9.62946L30.4962 15.3766L25.5 12.155L20.5038 15.3766L22.0239 9.62946L17.416 5.87336L23.3516 5.54304L25.5 0Z" fill="#AA4E43"/>
<path d="M42.5 0L44.6484 5.54304L50.584 5.87336L45.9761 9.62946L47.4962 15.3766L42.5 12.155L37.5038 15.3766L39.0239 9.62946L34.416 5.87336L40.3516 5.54304L42.5 0Z" fill="#AA4E43"/>
<path d="M59.5 0L61.6484 5.54304L67.584 5.87336L62.9761 9.62946L64.4962 15.3766L59.5 12.155L54.5038 15.3766L56.0239 9.62946L51.416 5.87336L57.3516 5.54304L59.5 0Z" fill="#AA4E43"/>
<path d="M76.5 0L78.6484 5.54304L84.584 5.87336L79.9761 9.62946L81.4962 15.3766L76.5 12.155L71.5038 15.3766L73.0239 9.62946L68.416 5.87336L74.3516 5.54304L76.5 0Z" fill="#9A9A9A"/>
</svg>
