<svg width="23" height="20" viewBox="0 0 23 20" fill="none" xmlns="http://www.w3.org/2000/svg">
<path fill-rule="evenodd" clip-rule="evenodd" d="M9.02752 0.179762C9.24626 0.0661186 9.49539 0.00421777 9.75016 0.000208019C10.0049 -0.00380173 10.2565 0.0502191 10.4798 0.156905C17.0299 2.80262 20.7378 8.29691 20.5095 12.8912C20.4109 14.8212 19.6174 16.6083 18.078 17.9126C16.537 19.2183 14.3241 19.9812 11.523 19.9855C10.391 20.0464 9.25631 19.9101 8.18561 19.5847C7.11491 19.2592 6.12972 18.7511 5.28782 18.0902C4.44591 17.4293 3.76424 16.6289 3.28278 15.7359C2.80131 14.8429 2.52975 13.8752 2.48402 12.8898V12.8783C2.45058 11.7359 2.77756 10.6074 3.42948 9.61515C4.0814 8.62291 5.03337 7.80486 6.18209 7.24976C6.28188 7.20159 6.39212 7.17203 6.50578 7.16297C6.61944 7.1539 6.73402 7.16553 6.84222 7.19712C6.95042 7.22871 7.04986 7.27955 7.13421 7.34642C7.21855 7.41329 7.28595 7.4947 7.33209 7.58548C7.73192 8.37401 8.29238 9.09319 8.98645 9.70833C9.79802 8.78691 10.1726 7.59691 10.1611 6.28833C10.1479 4.73119 9.58609 3.06119 8.64309 1.63976C8.4793 1.40004 8.42786 1.1147 8.49943 0.84289C8.571 0.571079 8.76009 0.333634 9.02752 0.179762Z" fill="#AA4E43"/>
</svg>
