<svg width="19" height="20" viewBox="0 0 19 20" fill="none" xmlns="http://www.w3.org/2000/svg">
<path fill-rule="evenodd" clip-rule="evenodd" d="M7.02728 0.180006C7.24602 0.0663627 7.49515 0.00446191 7.74992 0.000452159C8.00469 -0.00355759 8.25623 0.0504633 8.47956 0.157149C15.0296 2.80286 18.7376 8.29715 18.5092 12.8914C18.4106 14.8214 17.6171 16.6086 16.0778 17.9129C14.5368 19.2186 12.3238 19.9814 9.52278 19.9857C8.39071 20.0466 7.25606 19.9104 6.18537 19.5849C5.11467 19.2595 4.12948 18.7514 3.28757 18.0905C2.44567 17.4296 1.764 16.6291 1.28253 15.7361C0.80107 14.8431 0.529509 13.8755 0.483776 12.89V12.8786C0.450336 11.7362 0.777316 10.6076 1.42924 9.6154C2.08116 8.62315 3.03313 7.8051 4.18185 7.25001C4.28164 7.20183 4.39188 7.17227 4.50553 7.16321C4.61919 7.15415 4.73378 7.16578 4.84198 7.19736C4.95018 7.22895 5.04962 7.2798 5.13396 7.34666C5.21831 7.41353 5.2857 7.49495 5.33185 7.58572C5.73167 8.37425 6.29214 9.09344 6.9862 9.70858C7.79778 8.78715 8.17235 7.59715 8.16085 6.28858C8.1477 4.73143 7.58585 3.06143 6.64285 1.64001C6.47906 1.40028 6.42762 1.11494 6.49919 0.843134C6.57076 0.571323 6.75985 0.333878 7.02728 0.180006Z" fill="#AA4E43"/>
</svg>
